<?xml version="1.0" encoding="UTF-8"?>
<svg id="_レイヤー_1" data-name="レイヤー 1" xmlns="http://www.w3.org/2000/svg" width="21.37" height="20.99" viewBox="0 0 21.37 20.99">
  <defs>
    <style>
      .cls-1 {
        fill: #286de8;
      }

      .cls-2 {
        fill: #2ea54c;
      }

      .cls-3 {
        fill: #f0b903;
      }
    </style>
  </defs>
  <path class="cls-3" d="M11.8,.83c1.48,.75,2.13,2.42,1.46,3.73l-7.66,15.02c-.67,1.31-2.41,1.76-3.88,1.01s-2.13-2.42-1.46-3.73L7.92,1.84c.67-1.31,2.41-1.76,3.88-1.01Z"/>
  <path class="cls-1" d="M9.38,.36c-1.48,.75-2.12,2.45-1.44,3.78l7.81,15.32c.68,1.34,2.43,1.81,3.91,1.06s2.12-2.45,1.44-3.78L13.28,1.41C12.6,.08,10.85-.39,9.38,.36Z"/>
  <ellipse class="cls-2" cx="3.06" cy="17.99" rx="3.03" ry="3"/>
</svg>