<?xml version="1.0" encoding="UTF-8"?>
<svg xmlns="http://www.w3.org/2000/svg" viewBox="0 0 175.57 218.7">
  <defs>
    <style>
      .cls-1 {
        fill: #fff;
      }

      .cls-2 {
        fill: none;
        stroke: #000;
        stroke-linecap: round;
        stroke-linejoin: round;
        stroke-width: .5px;
      }

      .cls-3 {
        fill: #eaeaea;
      }
    </style>
  </defs>
  <g id="_色のみ" data-name="色のみ">
    <g>
      <path class="cls-3" d="M36.63,206.39c-1.43-3.16-2.16-7.4-2.16-7.4l.36-1.88,.61,.58s8.13,4.19,25.22,.93l.17-.13,.5-.63,.27,1.81-.04,.19-.51,2.38v.02l-1.68,3.65-.45,.99-.77,1.67c-2.06,2.28-8.78,2.82-13.89,2.27-2.68-.3-4.92-.89-5.82-1.69-.69-.62-1.3-1.62-1.81-2.76Z"/>
      <path class="cls-1" d="M99.36,67.4c-1.68-2.17-3.4-3.53-3.4-3.53v-1.45c-1.4,1.02-3.66-.99-3.66-.99l-.16-3.12-.56-.55c-2.67-2.91-4.3-6.61-5.71-10.24l-.48-1.78s-.07-.07-.11-.1l.11-.13c.97-.69,1.69-1.35,2.23-1.94h.01c.81,.34,3.44,0,3.44,0h.25l1.71-.15c2.24-.64,3.86-1.57,5.03-2.55h.87c2.18-.23,4.21-1.76,4.21-1.76,.88-.8,1.58-1.66,2.11-2.44,6.57,.3,10.62-5.19,10.62-5.19v3.29s3.99,1.48,2.78,9.95h.99s1.07,.11,3.13-3.11l.77-1.03s-.24-7.22,4.77-5.57c0,0,4.5,.39,2.18,8.2,0,0-.34,1.18-1.24,2.48-.69,1-1.71,2.07-3.16,2.76l-.5,1.27s-1.9,11.12-12.48,17.97c-2.14,1.39-4.65,2.61-7.56,3.52,0,0-3.56-.25-5.98-3.52-.07-.1-.15-.2-.21-.29Zm.99-17.48c0-.33-.27-.6-.6-.6s-.61,.27-.61,.6,.27,.6,.61,.6,.6-.27,.6-.6Z"/>
      <path class="cls-1" d="M126.09,48.45c1.45-.69,2.47-1.76,3.16-2.76l2.43-1.63s11.42,19.12,19.06,20.77l2.01,.23-22.14,8.31c-8.97,2.07-15.5-3.36-16.91-4.67l-.59-1.01c10.58-6.85,12.48-17.97,12.48-17.97l.5-1.27Z"/>
      <path class="cls-3" d="M98.97,67.69l.39-.29c.06,.09,.14,.19,.21,.29,2.42,3.27,5.98,3.52,5.98,3.52,2.91-.91,5.42-2.13,7.56-3.52l.59,1.01c1.41,1.31,7.94,6.74,16.91,4.67l22.14-8.31,.61-.23s2.48,3.33,3.45,3.33,1.7,.78,1.7,.78c0,0,2.61,3.21,5.67,4.9,0,0,9.91,13.41,9.52,29.32,0,0,2.56,7.08,1.23,16.15-.03,.22-.07,.45-.1,.69-1.57,9.39-1.21,22.04-1.21,22.04l-3.37,40.96-.71-.16-19.63-4.5-22.79-5.22s-3.6,4.94-13.71,11.31c0,0-2.26,1.88-7.37,3.45l-5.66,3.78s-11.55,4.16-13.91,6.44c-.71,.69-2,2.11-3.46,3.75l-.11-.1-1.13,.76s-1.8,1.15-2.76,2.76l-3.01,2.92-.16-.16-1.2-.17h-.15l-1.18-.14v-.58l4.07-34.49,1.07-34.6,.52-16.97,.07-2.34c-4.97-8.28,2.86-27.26,2.86-27.26l3.61-14.75c1.36-2.11,13.46-9.04,13.46-9.04Z"/>
      <path class="cls-3" d="M169.54,182.84l-.04,.16-2.31,.87,.75,32.39-.08,.73-60.06-6.39-4.41-.46,3.36-2.21s4.09-5.58,6.66-6.14c4.71-4.1,8.53-5.9,8.53-5.9,5.79-2.17,27.97-17.55,27.97-17.55l19.63,4.5Z"/>
      <path class="cls-1" d="M84.49,207.94l-3.69,4.58c.08-.06,.16-.12,.25-.19,2.12-2.66,3.06-3.88,3.44-4.39Zm-3.7,4.59c-3.69,2.8-4.82,.63-5.17-.85-.14-.6-.15-1.08-.15-1.08,0,0,.28-.33,.75-.89h.01c1.36-1.61,4.31-5.06,6.78-7.86,1.46-1.64,2.75-3.06,3.46-3.75,2.36-2.28,13.91-6.44,13.91-6.44l5.66-3.78c5.11-1.57,7.37-3.45,7.37-3.45,10.11-6.37,13.71-11.31,13.71-11.31l22.79,5.22s-22.18,15.38-27.97,17.55c0,0-3.82,1.8-8.53,5.9-2.57,.56-6.66,6.14-6.66,6.14l-3.36,2.21-7.13,4.69c-2.98,1.79-4.38-.85-4.38-.85l2.61-2.45c-.21,.16-1,.76-3.53,2.69-3.11,2.36-4.6-.84-4.6-.84l3.33-3.98-3.55,3.85c-4.16,3.33-5.35-.72-5.35-.72Z"/>
      <path class="cls-3" d="M105.25,36.67c-.53,.78-1.23,1.64-2.11,2.44,0,0-2.03,1.53-4.21,1.76h-.87c-1.17,.98-2.79,1.91-5.03,2.55l-1.71,.15h-.25s-2.63,.34-3.44,0h-.01c-.54,.59-1.26,1.25-2.23,1.94l-.11,.13c-20.9-18.8,7.19-39.64,7.19-39.64l.56-1.2S99.58-.39,110.61,.32l2.47,.88s5.67,.55,8.59,4.65l2.16-.7s18.23,4.41,8.34,37.15l-.49,1.76-2.43,1.63c.9-1.3,1.24-2.48,1.24-2.48,2.32-7.81-2.18-8.2-2.18-8.2-5.01-1.65-4.77,5.57-4.77,5.57l-.77,1.03c-2.06,3.22-3.13,3.11-3.13,3.11h-.99c1.21-8.47-2.78-9.95-2.78-9.95v-3.29s-4.05,5.49-10.62,5.19Z"/>
      <path class="cls-3" d="M82.9,201.75l.11,.1c-2.47,2.8-5.42,6.25-6.78,7.85l-.31-.56c-.19-.71,0-.87,0-.87l.08-.08,3.01-2.92c.96-1.61,2.76-2.76,2.76-2.76l1.13-.76Z"/>
      <path class="cls-1" d="M55.01,108.01l.15-1.9,.05-.56-1.48-.66-3.23-.77s-1.22-.27-1.26,1.56c0,.69,.14,1.68,.59,3.1l-.1,2.15,.04,.31c-1.14,.12-2.4,.41-3.59,.87l-.09-.21-.56-2.3,.07-1.59,.19-3.99c-.41-2.16,8.55-2.72,8.55-2.72l2.92,1.95c3.38,2.51,9.89,9.83,9.89,9.83l11.81,8h.01l-.52,16.97h0l-.68-.64-13.48-11.62-.44-.6-.28-.02c.18-2.13,.45-4.12,.6-5.18,0-.02,.01-.04,.01-.07,.04-.19,.07-.39,.09-.58v-.04c.04-.33,.04-.64,.02-.94-.17-2.71-4.73-6.48-10.61-7.08v-.09c-1.02-3.33,1.34-3.18,1.34-3.18Z"/>
      <path class="cls-1" d="M78.45,138.05l-1.07,34.6-4.07,34.49v.58l-12.55-1.49h0s-1.39-.32-1.39-.32l1.68-3.65v-.02l.12-.25s10.18-3.02,9.54-12.01c0,0,.18-10.14-11.69-9.21l-.23-1.9-.03-.23c1.74-.24,3.11-.56,3.42-1,0,0,1.86-1.72-7.18-1.84l-.83,.12c-.31-.66-.29-1.26-.29-1.26,2.91-5.03,4.33-6.43,4.33-6.43,9.46-2.8,10.68-7.14,10.68-7.14,.28-4.98-4.57-4.19-4.57-4.19l.57-1.07c-13.56,1.53-24.56-.12-28.67-.9,13.34,2.44,27.5,.54,27.5,.54l1.17-2.12h.19c2.39-2.87,1.71-5.89,1.71-5.89l-3.07-14.91c-.48-1.6-.39-4.61-.16-7.38l.28,.02,.44,.6,13.48,11.62,.68,.64h0Z"/>
      <path class="cls-3" d="M60.76,206.23l12.55,1.49,1.18,.14h.15l1.2,.17,.16,.16-.08,.08s-.19,.16,0,.87l.31,.56h0s-.01,.01-.01,.01l-.99,.26-8.48,1.75c.14-1.33-.83-2.11-.83-2.11l-.03-.18,4.85-.89-11.02-1.5-.8-.14,.45-.99,1.39,.31h0Z"/>
      <path class="cls-3" d="M75.23,209.97l.99-.26c-.47,.56-.75,.89-.75,.89,0,0,.01,.48,.15,1.08l-.15,.04-.24,.46-.74,1.38-23.87,4.89-19.85-2.31c-.7,.1-1.94-3.5-1.94-3.5l-3.64-.37c-2.16-.96,.28-3.36,.28-3.36l.75-.16,.08,.39,17.9,2.2,6.79,.84,14.9-2.75,.03,.18s.97,.78,.83,2.11l8.48-1.75Z"/>
      <path class="cls-1" d="M70.71,189.98c.64,8.99-9.54,12.01-9.54,12.01l-.12,.25,.51-2.38h.78c7.54-3.51,6.79-9.27,6.79-9.27-.42-9.6-9.23-8.22-9.23-8.22l-.82,.21,2.25,15.28-1.61-.75c-9.01-2.97-23.15-.64-23.61-.41l-1.28,.41,3.05-15.71c-.78,.32-1.91,0-1.91,0-1.06-.66,.76-2.63,.76-2.63l.17-.5c.28,.09,.63,.18,1.05,.26l-.07,.34s-1.15,.81-1.15,1.65c0,0,1.2,.07,2.31-1.16l.09-.62c1.97,.29,5.04,.51,9.79,.5,0,0,5.89-.08,9.84-.6l.03,.23,.23,1.9c11.87-.93,11.69,9.21,11.69,9.21Z"/>
      <path class="cls-3" d="M70.74,208.54l-4.85,.89-14.9,2.75-6.79-.84,.06-.5c5.11,.55,11.83,.01,13.89-2.27l.77-1.67,.8,.14,11.02,1.5Z"/>
      <path class="cls-1" d="M69.13,190.59s.75,5.76-6.79,9.27h-.78l.04-.19-.27-1.81-2.25-15.28,.82-.21s8.81-1.38,9.23,8.22Z"/>
      <path class="cls-1" d="M59.66,165.08l.67,.38c13.12-6.22,3.8-6.85,3.8-6.85h-.76l-3.71,6.47Zm-15.86,10.19c-.02-.15-.04-.24-.04-.24l-4.67-9.37c-5.08-9.74-4.61-11.09-4.61-11.09,0,0,.32,.08,.94,.2h0s.09,.03,.13,.03c.03,.01,.06,.02,.1,.02,.17,.04,.36,.07,.57,.11,4.11,.78,15.11,2.43,28.67,.9l-.57,1.07s4.85-.79,4.57,4.19c0,0-1.22,4.34-10.68,7.14,0,0-1.42,1.4-4.33,6.43,0,0-.02,.6,.29,1.26l.83-.12c9.04,.12,7.18,1.84,7.18,1.84-.31,.44-1.68,.76-3.42,1-3.95,.52-9.84,.6-9.84,.6-4.75,.01-7.82-.21-9.79-.5-.45-.07-.84-.14-1.18-.21-.42-.08-.77-.17-1.05-.26-1.41-.44-1.35-.86-1.35-.86-1.16-2.51,7.77-2.13,7.77-2.13h.48Z"/>
      <path class="cls-3" d="M50.04,152.01h1.32v.02s-17.22,.16-17.22,.16l-.39-.18c-4.15-2.25-2.31-8.76-2.31-8.76l8.66-16.9,1.33-7.99h.07c.86,3.73,6.31,7.86,10.39,7.86,8.87,0,11.68-3.39,12.27-6.23-.15,1.06-.42,3.05-.6,5.18-.23,2.77-.32,5.78,.16,7.38l3.07,14.91s.68,3.02-1.71,5.89h-.19c-1.47-.86-9.45-1.25-9.45-1.25l-.9-.02v-9.98c.2-.01,.35-.04,.35-.04l.55-1.09c-.54-1.35-1.47-1.23-2.07-1.26-.11,.01-.21,0-.3-.02-.55-.14-1.5,2.96-1.5,2.96l-1.53,8.89v.47Z"/>
      <path class="cls-1" d="M64.89,153.35l-1.17,2.12s-14.16,1.9-27.5-.54c-.19-.03-.38-.07-.57-.11-.04,0-.07-.01-.1-.02-.05-.01-.09-.02-.13-.03l-1.28-2.58,17.21-.16,1.68-.02h.77c.03,.39,.05,.69,.08,.85h.66v-.78l.9,.02s7.98,.39,9.45,1.25Z"/>
      <path class="cls-3" d="M43.53,113.56c.77-.6,1.68-1.08,2.65-1.45,1.19-.46,2.45-.75,3.59-.87,.65-.08,1.27-.09,1.81-.05h.48c.55,0,1.08,.03,1.61,.09,5.88,.6,10.44,4.37,10.61,7.08,.02,.3,.02,.61-.02,.94v.04c-.02,.13-.05,.32-.09,.58,0,.03-.01,.05-.01,.07-.59,2.84-3.4,6.23-12.27,6.23-4.08,0-9.53-4.13-10.39-7.87-.12-.53-.15-1.06-.07-1.56,.21-1.31,1.01-2.39,2.1-3.23Zm13.65,5.13c1-2.21-.87-4.6-3.76-4.6h-.84c-1.42-.03-3.59,0-4.07,2.15-.23,1.65,.61,2.63,1.53,3.21v1.97s2.82,1.94,5.63,0v-1.08l-.08-.25c.68-.25,1.27-.69,1.59-1.4Z"/>
      <path class="cls-1" d="M64.13,158.61s9.32,.63-3.8,6.85l-.67-.38,3.71-6.47h.76Z"/>
      <path class="cls-3" d="M61.33,197.86l-.5,.63-.17,.13c-17.09,3.26-25.22-.93-25.22-.93l-.61-.58,1.28-.41c.46-.23,14.6-2.56,23.61,.41l1.61,.75Z"/>
      <path class="cls-3" d="M50.04,119.45c-.92-.58-1.76-1.56-1.53-3.21,.48-2.15,2.65-2.18,4.07-2.15h.84c2.89,0,4.76,2.39,3.76,4.6-.32,.71-.91,1.15-1.59,1.4-1.43,.54-3.29,.26-3.97,.05-.39-.12-1-.33-1.58-.69Z"/>
      <path class="cls-3" d="M55.67,120.34v1.08c-2.81,1.94-5.63,0-5.63,0v-1.97c.58,.36,1.19,.57,1.58,.69,.68,.21,2.54,.49,3.97-.05l.08,.25Z"/>
      <path class="cls-1" d="M55.44,140.97l-.55,1.09s-.15,.03-.36,.04c-.33,.02-.81,0-1.08-.27-.12-.11-.2-.26-.22-.46-.1-1.01,.12-1.09,.12-1.09l.02-.57c.6,.03,1.53-.09,2.07,1.26Z"/>
      <path class="cls-3" d="M55.21,105.55l-.05,.56-.56-.05c-2.62,1.34-4.51-.35-4.51-.35l-.85-.03c.04-1.83,1.26-1.56,1.26-1.56l3.23,.77,1.48,.66Z"/>
      <path class="cls-3" d="M55.16,106.11l-.15,1.9s-2.36-.15-1.33,3.18v.09c-.54-.06-1.07-.09-1.62-.09h-.48c-.54-.04-1.16-.03-1.81,.05l-.04-.31,.1-2.15c-.45-1.42-.6-2.41-.59-3.1l.85,.03s1.89,1.69,4.51,.35l.56,.05Z"/>
      <path class="cls-1" d="M54.54,142.7v9.31h-.74c-.17-2.49-.37-8.85-.39-9.59v-.55l.04-.04c.27,.27,.75,.29,1.08,.27v.15s.01,.35,.01,.35v.1Z"/>
      <path class="cls-3" d="M53.01,143.11l.4-.96v.27c.02,.74,.22,7.1,.39,9.59h-2.44l.11-.29s1.02-6.92,1.43-8.35c.02-.07,.04-.12,.06-.16l.04-.09h.01Z"/>
      <path class="cls-1" d="M53.45,141.83l-.04,.04v.28l-.4,.96h-.01s-.03,.05-.04,.1c-.02,.04-.04,.09-.06,.16-.41,1.43-1.43,8.35-1.43,8.35l-.11,.29h-1.32v-.47l1.53-8.89s.95-3.1,1.5-2.96c.09,.02,.19,.03,.3,.02l-.02,.57s-.22,.08-.12,1.09c.02,.2,.1,.35,.22,.46Z"/>
      <path class="cls-1" d="M46.09,111.9l.09,.21c-.97,.37-1.88,.85-2.65,1.45l-.3-1.35,1.69-2.97,.61-1.23h.07l-.07,1.59,.56,2.3Z"/>
      <path class="cls-3" d="M44.26,210.84l-.06,.5-17.9-2.2-.08-.39,9.89-2.14,.52-.22c.51,1.14,1.12,2.14,1.81,2.76,.9,.8,3.14,1.39,5.82,1.69Z"/>
    </g>
  </g>
  <g id="_線のみ" data-name="線のみ">
    <path class="cls-2" d="M64.14,158.61s9.32,.63-3.8,6.85"/>
    <path class="cls-2" d="M113.41,68.41s7.04,7.3,17.21,4.95l22.75-8.54s2.48,3.32,3.45,3.32,1.69,.78,1.69,.78c0,0,2.61,3.21,5.67,4.9,0,0,9.91,13.42,9.52,29.32,0,0,2.57,7.08,1.24,16.15-.03,.23-.07,.46-.11,.69-1.57,9.4-1.2,22.04-1.2,22.04l-3.37,40.96-43.13-9.88,3.25-52.04s1.33-12.17-2.17-18.67"/>
    <path class="cls-2" d="M162.66,112.77c-3.61,18.07-35.54,60.35-35.54,60.35,0,0-3.6,4.94-13.72,11.31,0,0-2.25,1.89-7.36,3.46l-5.66,3.77s-11.56,4.17-13.91,6.45-11,12.5-11,12.5c0,0,.16,6.05,5.58,1.73,3.14-3.93,3.69-4.72,3.69-4.72"/>
    <path class="cls-2" d="M158.15,87.37s-15.52,25.14-19.43,68.28"/>
    <path class="cls-2" d="M152.39,86.01s-16.75,32.8-18.1,68.21"/>
    <path class="cls-2" d="M115.31,103.23s-14.13,32.45,1.55,72.63"/>
    <path class="cls-2" d="M92.13,98.74s-1.1,81.53,6.84,91.24"/>
    <line class="cls-2" x1="87.05" y1="86.01" x2="88.38" y2="163.33"/>
    <path class="cls-2" d="M98.97,67.69s-12.1,6.93-13.46,9.04l-3.61,14.76s-7.83,18.97-2.86,27.26l-1.65,53.91-4.07,34.49"/>
    <line class="cls-2" x1=".25" y1="198.99" x2="34.53" y2="203.06"/>
    <line class="cls-2" x1="60.67" y1="206.22" x2="74.49" y2="207.86"/>
    <line class="cls-2" x1="107.8" y1="210.6" x2="171.38" y2="217.36"/>
    <path class="cls-2" d="M78.97,121.07l-11.82-7.99s-6.51-7.33-9.89-9.84l-2.92-1.95s-8.96,.56-8.55,2.71l-.26,5.58,.56,2.31"/>
    <polyline class="cls-2" points="44.92 109.24 43.23 112.21 43.59 113.8"/>
    <path class="cls-2" d="M62.25,109.55s-4.32-.1-7.24-1.54c0,0-2.36-.15-1.33,3.18"/>
    <path class="cls-2" d="M49.74,110.93l.1-2.15c-1.64-5.17,.67-4.66,.67-4.66l3.23,.77,1.49,.67-.2,2.46"/>
    <path class="cls-2" d="M50.09,105.7s1.9,1.69,4.51,.36"/>
    <path class="cls-2" d="M41.44,118.36l-1.33,7.99-8.66,16.9s-1.84,6.51,2.31,8.76"/>
    <path class="cls-2" d="M64.28,119.18s-1.59,9.94-.56,13.37l3.07,14.91s.68,3.02-1.71,5.89"/>
    <path class="cls-2" d="M50.04,119.41v2s2.82,1.95,5.63,0v-1.07"/>
    <path class="cls-2" d="M50.04,151.54l1.53-8.89s.96-3.1,1.5-2.96,1.73-.32,2.37,1.28l-.55,1.09s-1.56,.32-1.66-.69,.11-1.09,.11-1.09"/>
    <path class="cls-2" d="M53.41,142.35s.27,9.22,.47,10.5"/>
    <path class="cls-2" d="M51.48,151.72s1.32-8.95,1.55-8.6"/>
    <line class="cls-2" x1="54.55" y1="142.69" x2="54.55" y2="152.85"/>
    <path class="cls-2" d="M55.44,152.1s7.98,.39,9.45,1.25l-1.17,2.12s-14.72,1.98-28.3-.69l-1.28-2.59,19.05-.17"/>
    <path class="cls-2" d="M55.44,177.22c-1.6-.84-1.56-2.56-1.56-2.56,2.9-5.04,4.33-6.43,4.33-6.43,9.46-2.8,10.68-7.13,10.68-7.13,.28-4.99-4.57-4.2-4.57-4.2l.57-1.07c-17.29,1.96-30.41-1.26-30.41-1.26,0,0-.47,1.35,4.62,11.1l4.66,9.37s.37,1.31-.65,2.38"/>
    <path class="cls-2" d="M43.32,175.28s-8.93-.38-7.77,2.13c0,0-.27,1.85,13.38,1.83,0,0,12.24-.17,13.25-1.6,0,0,1.87-1.72-7.18-1.84"/>
    <path class="cls-2" d="M37.89,178.87s-1.16,.81-1.16,1.65c0,0,1.2,.07,2.31-1.16"/>
    <path class="cls-2" d="M36.73,178.77s-1.82,1.97-.76,2.63c0,0,1.13,.32,1.92,0l-3.42,17.59s1.35,7.83,3.97,10.15,16.57,2.91,19.71-.58l3.02-6.57s10.18-3.02,9.54-12.01c0,0,.17-10.15-11.69-9.22l-.23-1.9"/>
    <path class="cls-2" d="M35.45,197.69s8.13,4.19,25.22,.93"/>
    <path class="cls-2" d="M36.11,196.7c.47-.23,14.6-2.56,23.61,.41"/>
    <line class="cls-2" x1="64.28" y1="125.78" x2="77.76" y2="137.41"/>
    <path class="cls-2" d="M36.11,206.6l-10.64,2.3s-2.44,2.4-.28,3.36l3.64,.37s1.24,3.59,1.94,3.5l19.86,2.3,23.87-4.88,.74-1.38"/>
    <polyline class="cls-2" points="26.3 209.14 51 212.18 70.74 208.54 59.72 207.04"/>
    <path class="cls-2" d="M65.93,209.61s.97,.77,.83,2.11l8.48-1.75"/>
    <path class="cls-2" d="M81.78,202.5s-1.8,1.15-2.76,2.76l-3.09,2.99s-.19,.17,0,.88"/>
    <path class="cls-2" d="M84.56,207.86l-3.76,4.66s1.18,4.05,5.35,.73l3.55-3.85-3.33,3.98s1.49,3.2,4.6,.83,3.59-2.74,3.59-2.74l-2.67,2.5s1.4,2.64,4.38,.85l10.49-6.9s4.09-5.58,6.65-6.14c4.71-4.1,8.54-5.9,8.54-5.9,5.78-2.17,27.97-17.55,27.97-17.55"/>
    <path class="cls-2" d="M89.64,47.53s1.78,.81,2.18,4.44l.48,9.45s2.83,2.5,4.12,.48"/>
    <path class="cls-2" d="M95.96,62.42v1.45s1.88,1.48,3.62,3.82c2.42,3.27,5.98,3.52,5.98,3.52,17.29-5.41,20.04-21.49,20.04-21.49"/>
    <path class="cls-2" d="M96.87,64.44s3.55,1.06,8.4-1.42"/>
    <path class="cls-2" d="M94.23,47.36s4.69-3.31,9.42-.63"/>
    <circle cx="99.75" cy="49.92" r=".6"/>
    <path class="cls-2" d="M91.58,57.75c-2.67-2.91-4.29-6.6-5.71-10.24"/>
    <path class="cls-2" d="M131.69,44.06s11.42,19.11,19.06,20.77"/>
    <path class="cls-2" d="M123.55,40.58s-.24-7.22,4.77-5.56c0,0,4.5,.39,2.18,8.19,0,0-1.04,3.65-4.4,5.24"/>
    <path class="cls-2" d="M124.14,41.11s1.65,1-.31,4.63"/>
    <path class="cls-2" d="M128.31,36.66s5.1,2.69-.67,8.42"/>
    <path class="cls-2" d="M125.87,39.11s6.22,1.96,.55,4.31"/>
    <polyline class="cls-2" points="169.5 182.99 167.2 183.87 167.94 216.26"/>
    <path class="cls-2" d="M115.87,31.48v3.29s3.99,1.48,2.78,9.95"/>
    <path class="cls-2" d="M119.65,44.72s1.07,.11,3.13-3.11"/>
    <path class="cls-2" d="M93.03,4.8S99.58-.39,110.61,.32"/>
    <path class="cls-2" d="M113.08,1.2s5.68,.54,8.59,4.65"/>
    <path class="cls-2" d="M123.83,5.15s18.23,4.41,8.34,37.15"/>
    <path class="cls-2" d="M92.47,6s-28.19,20.91-7.08,39.74"/>
    <path class="cls-2" d="M93.56,40.87s-1.86,3.77-6.87,5.16"/>
    <path class="cls-2" d="M101.08,36.17s-.73,5.16-8.04,7.25"/>
    <path class="cls-2" d="M114.36,28.85s-6.87,8.65-14.01,12.02"/>
    <line class="cls-2" x1="63.38" y1="158.61" x2="59.25" y2="165.81"/>
    <line class="cls-2" x1="59.08" y1="182.58" x2="61.6" y2="199.67"/>
    <path class="cls-2" d="M59.91,182.37s8.81-1.38,9.22,8.22c0,0,.75,5.76-6.79,9.27"/>
    <path class="cls-2" d="M52.07,111.19c6.63,0,12.03,4.22,12.21,7.17s-1.72,7.86-12.39,7.86c-4.66,0-11.11-5.39-10.46-9.43s6.88-5.85,10.15-5.6"/>
    <path class="cls-2" d="M53.42,114.09c2.89,0,4.76,2.39,3.76,4.6s-4.56,1.76-5.56,1.45-3.49-1.21-3.11-3.9c.48-2.14,2.65-2.18,4.08-2.14"/>
  </g>
</svg>