<?xml version="1.0" encoding="UTF-8"?>
<svg id="_レイヤー_1" data-name="レイヤー 1" xmlns="http://www.w3.org/2000/svg" viewBox="0 0 24.88 21.5">
  <defs>
    <style>
      .cls-1 {
        fill: #fff;
      }
    </style>
  </defs>
  <path class="cls-1" d="M23.52,2.98c-.84-.9-2.08-1.6-3.69-2.1-1.92-.59-4.4-.89-7.38-.89S6.98,.3,5.06,.89c-1.61,.49-2.85,1.2-3.69,2.1C-.13,4.58-.02,6.48,.02,7.19c.02,.35,.31,.62,.65,.62H5.64c.36,0,.65-.29,.65-.65v-1.88c0-.24,.2-.44,.44-.44h.77c-.03,1.2-.29,3.63-2.12,5.55-1.82,1.91-2.85,3.53-3.46,4.91-.54,1.24-.65,2.23-.65,3.41v2.29c0,.27,.22,.49,.49,.49H23.13c.27,0,.49-.22,.49-.49v-2.29c0-1.18-.11-2.16-.65-3.41-.6-1.38-1.63-3-3.46-4.91-1.84-1.92-2.09-4.35-2.12-5.55h.77c.24,0,.44,.2,.44,.44v1.88c0,.36,.29,.65,.65,.65h4.97c.35,0,.63-.27,.65-.62,.04-.71,.15-2.61-1.35-4.21Zm-6.75,13.73l-2.31-1.21c.13-.28,.2-.59,.2-.92,0-1.22-.99-2.21-2.21-2.21s-2.21,.99-2.21,2.21,.99,2.21,2.21,2.21c.6,0,1.15-.24,1.54-.63l1.53,2.13c-.83,.69-1.9,1.1-3.07,1.1-2.66,0-4.82-2.16-4.82-4.82s2.16-4.82,4.82-4.82,4.82,2.16,4.82,4.82c0,.76-.18,1.49-.5,2.13Zm-2.09-10.49h-4.47v-1.38h4.47v1.38Z"/>
</svg>